<?xml version="1.0" encoding="UTF-8"?>
<svg version="1.1" xmlns="http://www.w3.org/2000/svg" width="500" height="500">
<path d="M0 0 C1.3432283 0.00851234 1.3432283 0.00851234 2.71359253 0.01719666 C3.73345749 0.0281411 3.73345749 0.0281411 4.77392578 0.03930664 C4.77631413 0.80922408 4.77870249 1.57914152 4.78116322 2.37238979 C4.8403621 21.12730438 4.91594346 39.88208792 5.00964069 58.63686275 C5.05455956 67.70662713 5.09398322 76.77635259 5.12036133 85.84619141 C5.14337309 93.75371281 5.17680656 101.66111063 5.22262734 109.56853396 C5.24651677 113.75342506 5.26527354 117.9381941 5.27153969 122.12315178 C5.27760998 126.06715036 5.29767952 130.01083678 5.32820129 133.95471954 C5.33695048 135.39738099 5.3407106 136.84008328 5.33893394 138.28277016 C5.33106178 147.62988891 5.37636295 156.99422973 11.89892578 164.35180664 C12.41712891 164.96668945 12.93533203 165.58157227 13.46923828 166.21508789 C20.64334369 171.89357471 27.91184053 172.62628624 36.8112793 172.58520508 C37.983022 172.59554276 39.15476471 172.60588043 40.36201477 172.61653137 C44.20909561 172.64587063 48.05564829 172.64745674 51.90283203 172.64868164 C54.5804257 172.66366927 57.25796519 172.68020419 59.93553162 172.6987915 C66.2463551 172.73922462 72.55707558 172.75966216 78.86800855 172.7727654 C86.0580152 172.7886787 93.24784765 172.8271123 100.43775284 172.86735868 C115.21640692 172.94958361 129.99508381 173.00378422 144.77392578 173.03930664 C144.87192726 187.63499339 140.31493822 201.57961896 130.21142578 212.41430664 C113.87989791 227.45715553 96.55452954 228.51022649 75.34423828 228.47290039 C73.06322068 228.4774697 70.78220445 228.48277748 68.50119019 228.48878479 C63.73543686 228.49768599 58.96985137 228.49532707 54.20410156 228.48535156 C48.12977081 228.47386909 42.05602203 228.49407833 35.98176765 228.5232687 C31.27509955 228.54171116 26.56856884 228.54132218 21.86187363 228.53563118 C19.62382059 228.53547893 17.38575766 228.5414424 15.14773941 228.55392265 C-4.74727122 228.64925171 -21.48056951 226.60257007 -36.60107422 212.22680664 C-52.55875065 195.19505583 -51.82560783 175.6300611 -51.6975131 153.58728576 C-51.67973307 149.87511808 -51.6834711 146.16296148 -51.68423462 142.45075989 C-51.68237174 136.22668945 -51.66514058 130.00281611 -51.63769531 123.77880859 C-51.60618613 116.60717435 -51.59570214 109.43575486 -51.59716642 102.26405638 C-51.59852192 94.58488251 -51.5846235 86.90579008 -51.56627321 79.22664094 C-51.5620333 77.03095004 -51.56059402 74.83527248 -51.55979538 72.63957787 C-51.557395 68.53598485 -51.53790164 64.43263998 -51.51660156 60.32910156 C-51.51750793 59.12627029 -51.51841431 57.92343903 -51.51934814 56.68415833 C-51.40584339 41.67459458 -48.25886218 29.45960783 -38.22607422 18.03930664 C-37.70271484 17.4218457 -37.17935547 16.80438477 -36.64013672 16.16821289 C-27.48802343 6.14553273 -13.55827001 -0.1116335 0 0 Z " fill="#EBEBE4" transform="translate(203.22607421875,135.960693359375)"/>
<path d="M0 0 C0.99 0.639375 1.98 1.27875 3 1.9375 C3 2.5975 3 3.2575 3 3.9375 C3.71671875 4.03546875 4.4334375 4.1334375 5.171875 4.234375 C8.40950229 5.03930996 10.48688266 6.32926319 13.25 8.1875 C17.2433892 10.85763597 21.30882167 13.24428169 25.51513672 15.55419922 C30.04040074 18.07337253 34.48361177 20.73233904 38.9375 23.375 C40.32485352 24.19581055 40.32485352 24.19581055 41.74023438 25.03320312 C43.5842111 26.12511646 45.42716503 27.21875905 47.26904297 28.31420898 C49.11475113 29.41130478 50.9628015 30.50446825 52.81298828 31.59399414 C53.70099121 32.11985107 54.58899414 32.64570801 55.50390625 33.1875 C56.29740479 33.65542969 57.09090332 34.12335938 57.90844727 34.60546875 C62.46576284 37.50785159 65.58869535 40.67718266 67 45.9375 C67.68372799 51.17941459 66.07986489 54.77792581 63 58.9375 C60.79353284 60.69424137 58.83553925 62.09232745 56.4375 63.5 C55.81617188 63.88148193 55.19484375 64.26296387 54.5546875 64.65600586 C50.06564747 67.3850334 45.48607937 69.94407268 40.84765625 72.41015625 C31.12215614 77.62643957 21.64679393 83.30054766 12.21240234 89.02148438 C10.22614734 90.22467264 8.23810726 91.42487536 6.25 92.625 C5.62359619 93.0058374 4.99719238 93.3866748 4.35180664 93.77905273 C-7.08521437 100.67836989 -7.08521437 100.67836989 -14 99.9375 C-17.4375 98.4375 -17.4375 98.4375 -20 96.9375 C-20 96.2775 -20 95.6175 -20 94.9375 C-20.66 94.9375 -21.32 94.9375 -22 94.9375 C-24.53212145 91.10797853 -24.2819059 87.16454519 -24.25878906 82.74414062 C-24.2622937 81.92092819 -24.26579834 81.09771576 -24.26940918 80.2495575 C-24.27820512 77.53086899 -24.27238489 74.81244112 -24.265625 72.09375 C-24.26697226 70.20332794 -24.26891331 68.31290622 -24.27142334 66.42248535 C-24.27437171 62.46147359 -24.27008617 58.50055205 -24.26074219 54.53955078 C-24.24934784 49.46184354 -24.25590885 44.38434774 -24.26788712 39.30664825 C-24.27511345 35.40332445 -24.27281422 31.50005078 -24.26763153 27.59672546 C-24.26629718 25.72442093 -24.26793526 23.85211184 -24.27259064 21.97981262 C-24.27766854 19.36337216 -24.26992785 16.74727432 -24.25878906 14.13085938 C-24.26283752 13.35671188 -24.26688599 12.58256439 -24.27105713 11.78495789 C-24.24135912 8.02023131 -24.1115684 5.13098685 -22 1.9375 C-21.34 1.9375 -20.68 1.9375 -20 1.9375 C-20 1.2775 -20 0.6175 -20 -0.0625 C-12.56125616 -3.38336779 -7.26490732 -4.09290553 0 0 Z " fill="#EBEBE3" transform="translate(251,190.0625)"/>
<path d="M0 0 C2.25 0.25 2.25 0.25 4 1 C3.62492618 3.71928517 3.15781339 4.84218661 1.1875 6.8125 C-1 8 -1 8 -3.25 7.6875 C-3.8275 7.460625 -4.405 7.23375 -5 7 C-3.86873442 3.60620325 -2.77333918 2.21867135 0 0 Z " fill="#C3CED0" transform="translate(469,465)"/>
<path d="M0 0 C2.475 0.99 2.475 0.99 5 2 C5.66 1.34 6.32 0.68 7 0 C7.99 0 8.98 0 10 0 C8.125 4.75 8.125 4.75 7 7 C5.68 6.67 4.36 6.34 3 6 C3 5.34 3 4.68 3 4 C2.34 4 1.68 4 1 4 C0.67 2.68 0.34 1.36 0 0 Z " fill="#D5D5CF" transform="translate(228,281)"/>
<path d="M0 0 C3.59391114 1.33488128 6.75490696 2.96022723 10 5 C6.92677456 5.91058531 4.19902639 6.08886184 1 6 C0.67 4.02 0.34 2.04 0 0 Z " fill="#CACBC7" transform="translate(289,214)"/>
<path d="M0 0 C0.33 1.32 0.66 2.64 1 4 C-0.43534841 4.2226746 -1.87345525 4.42761906 -3.3125 4.625 C-4.11300781 4.74101562 -4.91351563 4.85703125 -5.73828125 4.9765625 C-8 5 -8 5 -11 3 C-9.73160474 2.49384702 -8.46016898 1.99530901 -7.1875 1.5 C-6.12595703 1.08234375 -6.12595703 1.08234375 -5.04296875 0.65625 C-3 0 -3 0 0 0 Z " fill="#CACBC6" transform="translate(193,138)"/>
<path d="M0 0 C0.66 0.66 1.32 1.32 2 2 C1.67 2.99 1.34 3.98 1 5 C0.85596652 6.33363703 0.75409577 7.67218046 0.68359375 9.01171875 C0.64169922 9.76904297 0.59980469 10.52636719 0.55664062 11.30664062 C0.51732422 12.09232422 0.47800781 12.87800781 0.4375 13.6875 C0.39431641 14.48478516 0.35113281 15.28207031 0.30664062 16.10351562 C0.20072632 18.06881447 0.09987449 20.03438496 0 22 C-0.33 22 -0.66 22 -1 22 C-1.02887814 18.52085059 -1.04675687 15.04173169 -1.0625 11.5625 C-1.07087891 10.56927734 -1.07925781 9.57605469 -1.08789062 8.55273438 C-1.09111328 7.60849609 -1.09433594 6.66425781 -1.09765625 5.69140625 C-1.10289307 4.81685791 -1.10812988 3.94230957 -1.11352539 3.04125977 C-1 1 -1 1 0 0 Z " fill="#F3F4EF" transform="translate(229,195)"/>
<path d="M0 0 C0.66 0.99 1.32 1.98 2 3 C1.67 3.99 1.34 4.98 1 6 C0.01 6 -0.98 6 -2 6 C-2.33 6.99 -2.66 7.98 -3 9 C-2.25 2.25 -2.25 2.25 0 0 Z " fill="#C0C2BC" transform="translate(156,171)"/>
<path d="" fill="#000000" transform="translate(0,0)"/>
<path d="" fill="#000000" transform="translate(0,0)"/>
<path d="" fill="#000000" transform="translate(0,0)"/>
<path d="" fill="#000000" transform="translate(0,0)"/>
<path d="" fill="#000000" transform="translate(0,0)"/>
<path d="" fill="#000000" transform="translate(0,0)"/>
<path d="" fill="#000000" transform="translate(0,0)"/>
<path d="" fill="#000000" transform="translate(0,0)"/>
<path d="" fill="#000000" transform="translate(0,0)"/>
<path d="" fill="#000000" transform="translate(0,0)"/>
<path d="" fill="#000000" transform="translate(0,0)"/>
<path d="" fill="#000000" transform="translate(0,0)"/>
<path d="" fill="#000000" transform="translate(0,0)"/>
<path d="" fill="#000000" transform="translate(0,0)"/>
<path d="" fill="#000000" transform="translate(0,0)"/>
<path d="" fill="#000000" transform="translate(0,0)"/>
<path d="" fill="#000000" transform="translate(0,0)"/>
<path d="" fill="#000000" transform="translate(0,0)"/>
<path d="" fill="#000000" transform="translate(0,0)"/>
<path d="" fill="#000000" transform="translate(0,0)"/>
<path d="" fill="#000000" transform="translate(0,0)"/>
<path d="" fill="#000000" transform="translate(0,0)"/>
<path d="" fill="#000000" transform="translate(0,0)"/>
<path d="" fill="#000000" transform="translate(0,0)"/>
<path d="" fill="#000000" transform="translate(0,0)"/>
<path d="" fill="#000000" transform="translate(0,0)"/>
<path d="" fill="#000000" transform="translate(0,0)"/>
<path d="" fill="#000000" transform="translate(0,0)"/>
<path d="" fill="#000000" transform="translate(0,0)"/>
<path d="" fill="#000000" transform="translate(0,0)"/>
<path d="" fill="#000000" transform="translate(0,0)"/>
<path d="" fill="#000000" transform="translate(0,0)"/>
<path d="" fill="#000000" transform="translate(0,0)"/>
<path d="" fill="#000000" transform="translate(0,0)"/>
<path d="" fill="#000000" transform="translate(0,0)"/>
<path d="" fill="#000000" transform="translate(0,0)"/>
<path d="" fill="#000000" transform="translate(0,0)"/>
<path d="" fill="#000000" transform="translate(0,0)"/>
<path d="" fill="#000000" transform="translate(0,0)"/>
<path d="" fill="#000000" transform="translate(0,0)"/>
<path d="" fill="#000000" transform="translate(0,0)"/>
<path d="" fill="#000000" transform="translate(0,0)"/>
<path d="" fill="#000000" transform="translate(0,0)"/>
<path d="" fill="#000000" transform="translate(0,0)"/>
<path d="" fill="#000000" transform="translate(0,0)"/>
<path d="" fill="#000000" transform="translate(0,0)"/>
<path d="" fill="#000000" transform="translate(0,0)"/>
<path d="" fill="#000000" transform="translate(0,0)"/>
<path d="" fill="#000000" transform="translate(0,0)"/>
<path d="" fill="#000000" transform="translate(0,0)"/>
<path d="" fill="#000000" transform="translate(0,0)"/>
<path d="" fill="#000000" transform="translate(0,0)"/>
<path d="" fill="#000000" transform="translate(0,0)"/>
<path d="" fill="#000000" transform="translate(0,0)"/>
<path d="" fill="#000000" transform="translate(0,0)"/>
<path d="" fill="#000000" transform="translate(0,0)"/>
<path d="" fill="#000000" transform="translate(0,0)"/>
<path d="" fill="#000000" transform="translate(0,0)"/>
<path d="" fill="#000000" transform="translate(0,0)"/>
<path d="" fill="#000000" transform="translate(0,0)"/>
<path d="" fill="#000000" transform="translate(0,0)"/>
<path d="" fill="#000000" transform="translate(0,0)"/>
<path d="" fill="#000000" transform="translate(0,0)"/>
<path d="" fill="#000000" transform="translate(0,0)"/>
<path d="" fill="#000000" transform="translate(0,0)"/>
<path d="" fill="#000000" transform="translate(0,0)"/>
<path d="" fill="#000000" transform="translate(0,0)"/>
<path d="" fill="#000000" transform="translate(0,0)"/>
<path d="" fill="#000000" transform="translate(0,0)"/>
<path d="" fill="#000000" transform="translate(0,0)"/>
<path d="" fill="#000000" transform="translate(0,0)"/>
<path d="" fill="#000000" transform="translate(0,0)"/>
<path d="" fill="#000000" transform="translate(0,0)"/>
<path d="" fill="#000000" transform="translate(0,0)"/>
<path d="" fill="#000000" transform="translate(0,0)"/>
</svg>
